<svg
  id="Layer_1"
  xmlns="http://www.w3.org/2000/svg"
  x="0"
  y="0"
  viewBox="0 0 792 974"
  xml:space="preserve"
  style="width: 50%"
>
  <style>
    .st1 {
      fill: #641d09;
    }
    .st2 {
      fill: #ffc8b0;
    }
    .st3 {
      fill: #f6ac82;
    }
    .st4 {
      fill: #f7ba97;
    }
    .st5 {
      fill: #fff;
    }
    .st6 {
      fill: #ebe1ea;
    }
    .st8 {
      fill: #f7bd9c;
    }
    .st10 {
      fill: #fd748a;
    }
  </style>
  <path
    d="M193.53 894.6c-27.96-69.99-98.26-92.59-145.15-151.59C12.56 697.96.42 635.1 16.87 579.95c14.32-48 48.42-89.23 56.83-138.61 6.24-36.62-2.33-74.32 1.67-111.26 5.01-46.31 30.38-89.55 66.73-118.67s83.03-44.34 129.61-45.01c20.79-.3 41.56 2.18 62.35 1.77 81.65-1.58 160.35-47.24 241.1-35.02 81.71 12.36 147.91 91.12 146.04 173.74-1.17 51.84-25.58 104.25-10.68 153.91 7.96 26.53 26.27 48.49 40.14 72.47 49.6 85.73 38.66 199.24-16.6 281.44-13.99 20.8-30.69 40.03-50.95 54.79-20.35 14.83-43.77 24.83-67.39 33.54-125.19 46.19-259.31 76.97-379.62 19.27-13.75-6.59-33.11-18.25-42.57-27.71z"
    fill="#ffe5e6"
  ></path>
  <path
    class="st1"
    d="M274.49 461.02c-29.78-12.34-53.19-37.68-66.53-67.02-13.34-29.34-17.16-62.41-14.65-94.54 3.53-45.14 20.12-90.3 51.95-122.51 10.78-10.91 24.55-20.69 39.87-20.15 7.92.28 15.47 3.32 22.66 6.67 4.54 2.11 9.41 4.81 11.04 9.54 1.54 4.46-.31 9.3-1.92 13.74-12.68 34.93-11.14 74.18.87 109.35 12 35.17 34 66.4 60.6 92.35 6.37 6.22 13.42 12.89 14.65 21.71 1.15 8.21-3.25 16.41-9.43 21.94s-13.95 8.88-21.57 12.14c-15.37 6.56-30.86 13.17-47.21 16.6s-33.58 2.98-40.33.18z"
  ></path>
  <path
    class="st2"
    d="M555.49 495.78c-1.81 18.37-7.22 36.17-12.6 53.84-4.09 13.4-8.36 27.17-17.16 38.07-15.72 19.47-42.54 25.87-67.52 27.48-29.09 1.87-60.13-1.75-83.36-19.37-21.35-16.21-33.18-42-40.88-67.67-7.83-26.09-12.26-53.08-15.32-80.15-.93-8.27-.37-18.94 7.31-23.32 7.14 3.7 15.39 7.49 22.9 4.62 5.74-2.2 9.24-7.76 10.79-13.86.53-2.11.84-4.28.92-6.41.32-8.26-1.82-16.46-1.69-24.73.02-1.38.13-2.84.9-3.99 1.11-1.66 3.26-2.21 5.22-2.63 30.07-6.36 60.7-10.06 91.42-11.05 1.37-.05 2.76-.08 4.09.24 5.85 1.41 7.9 8.56 8.69 14.53 1.46 11.08 2.28 22.48 6.4 32.81.31.79.65 1.57 1 2.34 5 10.94 15.43 20.44 27.45 20.15 12.09-.28 24.82-9.94 35.12-3.62 3.32 2.04 5.56 5.43 7.41 8.87 8.73 16.26 10.73 35.47 8.91 53.85z"
  ></path>
  <path
    class="st3"
    d="M475.6 414.19c-7.48 8.31-17.22 14.88-27.51 19.29-17.59 7.54-37.95 9.83-55.98 3.44-12.33-4.37-22.96-12.48-32.46-21.5.53-2.11.84-4.28.92-6.41.32-8.26-1.82-16.46-1.69-24.73.02-1.38.13-2.84.9-3.99 1.11-1.66 3.26-2.21 5.22-2.63 30.07-6.36 60.7-10.06 91.42-11.05 1.37-.05 2.76-.08 4.09.24 5.85 1.41 7.9 8.56 8.69 14.53 1.46 11.08 2.28 22.48 6.4 32.81z"
  ></path>
  <path
    class="st2"
    d="M460.77 293.78c7.23 114.21-60.91 115.66-60.91 115.66s-60.67 1.9-98.91-46.25c-.01-.01-.02-.01-.02-.01-11.04-13.91-20.21-32-25.51-55.51-23.65-104.91 35.93-126.85 35.93-126.85s32.46 19.81 89.92 28.37c13.72 2.05 22.72 6.66 28.61 11.67 3.38 2.86 5.74 5.86 7.38 8.57-1.02-16.54 25.95-26.49 37.27 15.18 13.4 49.33-13.76 49.17-13.76 49.17z"
  ></path>
  <path
    class="st4"
    d="M460.77 293.78c7.23 114.21-60.91 115.66-60.91 115.66s-60.67 1.9-98.91-46.25c19.43 13.46 42.32 21.96 65.88 24.05 20.02 1.77 42.05-1.74 55.96-16.26 9.03-9.43 13.49-22.33 16.25-35.1 8.24-38.07 3.39-78.04-9.16-115.02 3.38 2.86 5.74 5.86 7.38 8.57-1.02-16.54 25.95-26.49 37.27 15.18 13.4 49.33-13.76 49.17-13.76 49.17z"
  ></path>
  <path
    class="st5"
    d="M568.23 768.53c-1.89 16.97-6.93 33.27-12.58 49.44-3.7 10.65-7.68 21.23-11.19 31.91-3.32 10.1-6.22 20.56-8.09 31.11-3.11 17.56-3.35 35.36 2.13 52.18 0 0-244.57 60.12-335.52-30.83.77-1.56 7.98-28.02 54.03-98.56 28.14-43.09 42.41-96.17 49.25-130.95v-.01c.43-2.18.83-4.28 1.2-6.3 3.42-18.6 4.51-30.58 4.51-30.58s64.72 38.51 155.64 94.5c90.92 55.98 100.62 38.09 100.62 38.09z"
  ></path>
  <path
    class="st6"
    d="M555.65 817.97c-3.7 10.65-7.68 21.23-11.19 31.91-3.32 10.1-6.22 20.56-8.09 31.11-12.23 1.28-25.26-1.08-36.58-6-21.38-9.29-38.54-25.9-56.62-40.61-2.1-1.7-4.28-3.42-6.87-4.21-4.43-1.34-9.15.29-13.51 1.87-46.31 16.81-95.77 30.31-144.43 22.55-4.88-.78-9.99-1.9-13.67-5.2-3.69-3.31-5.24-9.48-2.03-13.25 7.51-8.83 17.03-20.34 28.21-30.11 21.21-18.52 48.92-27.55 72.92-42.28 1.46-.9 3.03-1.97 3.46-3.63.37-1.4-.16-2.85-.73-4.18-13.51-31.35-51.29-48.76-59.96-81.79-.11-.43-.22-.87-.3-1.32v-.01c-.43-2.28-.4-4.75 1.2-6.3l.05-.05c1.32-1.26 3.29-1.5 5.11-1.6 18.8-1.05 37.41 5.26 53.71 14.68 16.3 9.43 30.6 21.88 44.83 34.2 39.53 34.24 79.72 68.42 125.69 93.35 6.36 3.44 12.88 6.76 18.8 10.87z"
  ></path>
  <path
    class="st2"
    d="M645.64 641.39c1.59 3.15 1.25 6.93.39 10.35a37.87 37.87 0 01-8.95 16.41c3.64.54 5.93 4.64 5.58 8.3-.35 3.66-2.67 6.84-5.24 9.47-2.58 2.63-5.51 4.94-7.64 7.94 3.39-.45 4.93 5.58 3.08 9.11-2.37 4.5-6.83 6.97-11.68 8.9-.94.38-1.89.73-2.85 1.07v.01l-2.37.84c-1.14.41-2.28.81-3.39 1.24-15.88 6.11-28.28 18.75-43.1 27.11-13.59 7.67-28.9 11.59-43.9 15.87-23.35 6.66-46.38 14.39-69.29 22.5-3.41 1.21-6.82 2.43-10.22 3.65-4.33-3.28-8.57-6.74-12.7-10.47-12.45-13.5-26.54-25.36-40.59-37.19-4.01-3.38-7.96-6.88-11.89-10.43 18.84-2.28 37.55-4.81 56.25-7.35 6.99-.94 13.99-1.89 20.89-3.41 7.16-1.57 14.17-3.75 21.12-6.12 2.41.85 4.84 1.66 7.28 2.44 11.8 1.81 24.2-.51 34.55-6.48 8.36-4.82 15.34-11.98 19.91-20.43.65-.28 1.3-.58 1.95-.87 6.15-5.99 8.96-13.49 11.77-20.72 4.95-12.72 10.42-25.47 18.96-36.12 4.03-5.03 8.7-9.53 12.48-14.75 8.42-11.62 12.55-26.86 24.29-35.11 2.08-1.46 4.43-2.68 6.97-2.89 2.53-.2 5.28.77 6.66 2.9 2.21 3.41.26 7.92-1.93 11.34-.7 1.09-1.42 2.17-2.17 3.24-8.69 12.53-19.94 23.53-25.54 37.68-1.12 2.84-1.93 6.31-.1 8.76 2.55 3.41 7.94 2.19 11.65.1.62-.35 1.24-.71 1.84-1.1 14.33-8.96 22.68-25.11 29.92-40.53.61-1.3 1.25-2.65 2.37-3.57.52-.43 1.19-.73 1.86-.83.75-.12 1.52 0 2.12.47.8.62 1.13 1.67 1.39 2.66 1.94 7.44 2.7 15.29 1.31 22.85-1.4 7.56-5.07 14.83-10.93 19.81 4.19-1.85 8.29.2 9.89 3.35z"
  ></path>
  <path
    class="st2"
    d="M446.06 784.16c-8.2 2.95-16.39 5.93-24.58 8.92-51.63 18.86-103.14 37.97-156.78 49.6-6.82-1.06-12.12-9.54-14.72-16.59-20.29-55.01-32.71-112.87-37.13-171.33l-.3-4.16c-.44-6.16-.78-12.33-1.02-18.5-.01-.16-.02-.32-.02-.48-.01-.32-.03-.64-.04-.96-.28-7.32-.44-14.64-.46-21.97a.11.11 0 010-.08c-.04-8.3.09-16.61.39-24.92.07-2.15.16-4.3.26-6.45.34-7.67.83-15.33 1.46-22.98 1.47-18.09 3.72-36.12 6.75-54.02a600.882 600.882 0 016.11-31.26c.11-.5.22-.99.34-1.49.19-.86.38-1.72.58-2.58 6.09-1.54 12.94 1.94 18.79 5.62a192.26 192.26 0 0149.87 45.29c4.76 6.17 9.19 12.72 12.21 19.88.61 1.43 1.16 2.88 1.64 4.36 2.27 6.94 3.02 14.54 1.45 21.61v.01c-.44 1.97-1.06 3.89-1.87 5.75 0 .02-.01.04-.02.06-1.08 9.59-.92 19.37-.16 29.26 1.14 14.97 3.65 30.18 5.27 45.33 1.37 12.78 2.11 25.63 2.22 38.49.05 4.69.01 9.38-.11 14.06-.33 12.71-1.27 25.41-2.82 38.02 22.79-1.55 45.24-3.89 67.51-6.58 3.93 3.55 7.88 7.05 11.89 10.43 14.05 11.83 28.14 23.69 40.59 37.19 4.13 3.73 8.37 7.19 12.7 10.47zM540.88 684.72c-4.57 8.45-11.55 15.61-19.91 20.43-10.35 5.97-22.75 8.29-34.55 6.48a258.9 258.9 0 01-7.28-2.44c1.66-.56 3.31-1.14 4.96-1.72a731.936 731.936 0 0056.78-22.75z"
  ></path>
  <path
    d="M310.17 180.82c2.88-18.62 20.16-31.48 37.77-38.17 33.96-12.89 72.29-13.91 106.89-2.86 34.6 11.05 65.24 34.11 85.44 64.29 21.85 32.65 31.11 75.22 17.86 112.2-3.67 10.25-8.94 19.85-14.59 29.16-4.55 7.5-9.41 14.9-15.57 21.15-21.69 21.97-55.31 26.09-86.81 26.38 15.54-30.46 22.01-65.24 19.39-99.34 5.01.75 9.97-4.48 12.63-8.79 2.66-4.31 1.69-8 2.09-13.05.82-10.4-.68-17.38-2.49-27.66-1.63-9.31-5.12-21.26-15.07-24.41-3.75-1.19-10.29 1.7-13.72 3.64-3.43 1.93-10.85 13.01-8.66 16.28-5.54-9.63-14.55-25.94-26.58-28.65-19.14-4.32-33.35-5.04-55.17-9.97-15.36-3.47-32.91-9.7-43.41-20.2z"
    fill="#5e1a07"
  ></path>
  <path
    class="st3"
    d="M307.77 535.7c-5.79-6.22-11.9-12.19-18.31-17.77-16.6-14.44-35.27-26.24-56.16-32.85-3.35-1.06-6.75-1.99-10.06-3.15.87-4.33 1.78-8.64 2.74-12.95.3-1.36.61-2.71.92-4.07 6.09-1.54 12.94 1.94 18.79 5.62a192.26 192.26 0 0149.87 45.29c4.76 6.17 9.19 12.72 12.21 19.88zM316.19 694.63c-28.83-7.16-57.1-16.6-84.44-28.21-6.87-2.92-13.94-6.17-18.9-11.66-.42-.45-.81-.92-1.19-1.4-4.98-6.35-6.26-16.36-.69-22.2.16-.17.33-.33.5-.5 2.89-2.72 6.82-4.08 10.31-6.04 9.23-5.2 15.54-15.26 16.21-25.83.67-10.58-4.33-21.35-12.84-27.66 14.71 5.19 29.42 10.38 44.12 15.57 1.96.69 4.29 1.34 5.99.15 2.9-2.04.9-6.55-1.15-9.45a100.924 100.924 0 01-16.95-40.82c-.45-2.59-.03-6.25 2.59-6.46 1.05-.09 2.02.49 2.89 1.08 12.12 8.14 20.53 20.65 28.09 33.14 6.41 10.59 12.45 21.4 18.08 32.41 1.14 14.97 3.65 30.18 5.27 45.33 1.37 12.78 2.11 25.63 2.22 38.49.05 4.69.01 9.38-.11 14.06z"
  ></path>
  <path
    class="st8"
    d="M458.02 715.31c-6.9 1.52-13.9 2.47-20.89 3.41-18.7 2.54-37.41 5.07-56.25 7.35-18.1-16.34-35.65-33.46-56.51-42.26-2.67-1.13-5.36-2.21-8.07-3.24a254.486 254.486 0 00-48.43-13.22c-11.74-1.98-23.68-3.15-35.06-6.65-7.23-2.22-14.32-5.49-20.26-10.1-3.42-2.65-6.45-5.74-8.92-9.32-1.15-1.68-2.21-3.7-1.71-5.67.91-3.66 5.79-4.03 9.61-3.51.16.01.32.04.48.06-.16-.18-.33-.36-.5-.54-2.46-2.65-5.23-5.02-7.3-7.98-2.21-3.16-3.54-7.27-2.22-10.89 1.29-3.53 5.79-5.87 9.02-4.06.09.04.17.1.26.15l-.26-.23c-4.32-3.89-8.82-8.25-9.75-13.97-.95-5.84 4.26-12.77 9.91-11.03.08.02.15.05.23.08 2.19.75 3.84 2.56 5.57 4.13 3.3 3 7.22 5.31 11.44 6.75.74.25 1.54.48 2.28.22 1.33-.45 1.72-2.28 1.12-3.55-.59-1.28-1.83-2.1-3-2.87-5.72-3.71-11.43-7.41-17.15-11.13-1.19-.77-2.39-1.54-3.58-2.32-3.07-1.98-6.35-4.25-7.43-7.74-1.56-5.01 2.46-10.44 7.43-12.11 1.64-.55 3.33-.79 5.04-.81 3.49-.03 7.04.88 10.37 2.03 19.22 6.64 35.18 20.92 54.6 26.95 2.04.64 4.28 1.17 6.29.43 3.55-1.33 4.59-6.2 3.13-9.7-1.46-3.51-4.59-5.97-7.52-8.39a152.08 152.08 0 01-17.96-17.57c-4.01-4.63-7.88-9.85-8.55-15.95-.67-6.09 3.12-13.06 9.22-13.75 5.99-.68 10.86 4.53 14.63 9.24 10.66 13.35 21.32 26.7 31.66 39.88l.23.29c10.86 13.78 15.59 31.55 26.1 45.61 4.09 5.48 9.01 10.31 14.15 14.82 12.88 11.29 27.28 20.69 41.55 30.11 25.67 22.15 55.48 39.5 88.12 50.93-6.95 2.37-13.96 4.55-21.12 6.12zM612.57 715.03c1.87-.72 3.82-1.38 5.76-2.08-2.31 13.08-5.6 25.97-9.8 38.57-7.14 21.48-16.94 42.08-29.15 61.16-2.23 3.5-4.56 6.96-7.32 10.07-4.46 5.04-10.03 9.1-16.46 12.36-14.35.18-28.51-3.71-41.65-9.48s-25.37-13.39-37.51-21.03c-5.63-3.54-11.26-7.1-16.83-10.83-4.58-3.06-9.11-6.24-13.55-9.61 26.28-9.44 52.69-18.5 79.51-26.15 15-4.28 30.31-8.2 43.9-15.87 14.82-8.36 27.22-21 43.1-27.11zM648.64 489.47a8991.61 8991.61 0 01-4.03 71.42c-.63 10.46-1.3 21-2.75 31.36-.67.1-1.34.4-1.86.83-1.12.92-1.76 2.27-2.37 3.57-7.24 15.42-15.59 31.57-29.92 40.53-.6.39-1.22.75-1.84 1.1-3.71 2.09-9.1 3.31-11.65-.1-1.83-2.45-1.02-5.92.1-8.76 5.6-14.15 16.85-25.15 25.54-37.68.75-1.07 1.47-2.15 2.17-3.24 2.19-3.42 4.14-7.93 1.93-11.34-1.38-2.13-4.13-3.1-6.66-2.9-2.54.21-4.89 1.43-6.97 2.89-11.74 8.25-15.87 23.49-24.29 35.11-3.78 5.22-8.45 9.72-12.48 14.75-8.54 10.65-14.01 23.4-18.96 36.12-2.81 7.23-5.62 14.73-11.77 20.72-.65.29-1.3.59-1.95.87 1.1-2 2.05-4.08 2.85-6.22 2.75-9.28 5.51-18.57 8.27-27.86 2.65-8.92 5.3-17.85 7.38-26.92 5.35-23.29 6.95-47.42 13.77-69.97 16.88-28.87 43.83-51.72 75.49-64.28z"
  ></path>
  <path
    class="st1"
    d="M272.96 281c.52-5.5 4-10.33 8.22-13.9 4.05-3.42 8.96-5.94 14.22-6.56s10.86.81 14.77 4.39c-7.21-1.73-14.96-1.13-21.82 1.68-6.86 2.83-12.8 7.85-15.39 14.39zM342.67 240.68c-1.25-6.59 2.99-13.13 8.37-17.14 10.02-7.48 23.6-8.41 35.94-6.38-17.65.45-34.86 9.64-44.31 23.52zM359.13 267.08c-.98-5.11 1.95-10.2 5.59-13.91 5.38-5.49 12.84-9.21 20.53-9.02 2.15.05 4.46.49 5.96 2.03-12.83 2.55-24.59 10.13-32.08 20.9zM319.97 294.55c-3.44-2.37-8.03-2.77-12.03-1.55s-7.45 3.91-10.1 7.14c-2.93 3.57-5.03 8.31-3.8 12.76 6.07-9.15 15.32-16.15 25.93-18.35z"
  ></path>
  <path
    class="st5"
    d="M654.24 483.56c.18 7.37-1.78 15-5.62 21.23-.16.1-.32.2-.48.29.18-4.52-.09-9.06-.22-13.28-16.08 4.45-30.42 13.92-42.64 25.28-12.23 11.35-22.51 24.6-33.52 37.75a655.172 655.172 0 01-30.18 127.91c-20.16 10.22-41.72 19.27-63.9 26.4-45.92-18.17-85.7-48.66-124.82-78.78-4.8-3.69-9.64-7.43-13.59-12.03-4.99-5.82-8.37-12.81-11.93-19.6a332.735 332.735 0 00-17.97-30.26c.83-2.15 1.32-4.43 1.49-6.79v-.01c1.57-7.07.82-14.67-1.45-21.61-.48-1.48-1.03-2.93-1.64-4.36-3.02-7.16-7.45-13.71-12.21-19.88-13.79-17.88-25.26-26.54-44.37-38.54-12.48-7.84-20.33-7.82-25.21-8.3-2.61-.18-5.26-.02-7.87.59-4.88 1.15-9.61 3.86-13.56 8.81.03-.69.08-1.38.16-2.07.98-9.48 5.96-18.19 11-26.38 7.22-11.76 14.94-23.46 25.33-32.54 10.38-9.09 23.87-15.4 37.64-14.54 8.44.53 16.47 3.67 24.33 6.77 15.21 5.99 30.42 11.98 46.46 16.07.98 26.15 6.37 52.14 15.86 76.53 6.93 17.82 16.32 35.14 30.53 47.93s33.86 20.54 53.63 15.6c15.27 1.85 30.76-4.55 42.28-14.73 11.53-10.18 19.5-23.81 25.57-37.94 11.26-26.21 16.47-56.3 8.01-83.03 27.89-8.09 57.89-8.82 86.14-2.09 6.95 1.65 13.92 3.81 19.75 7.94 8.51 6.04 13.73 15.68 17.61 25.37 2.23 5.55 4.13 11.31 4.96 17.21.24 1.68.39 3.38.43 5.08z"
  ></path>
  <path
    d="M327.77 272.48c7.23 7.92 11.44 18.54 11.58 29.27.01.97 0 1.96.33 2.88.54 1.51 1.94 2.56 3.4 3.21 2.85 1.26 6.23 1.27 9.09.03-3.38.27-7.24-.61-8.98-3.51-1.32-2.2-1.09-4.96-1.15-7.53-.23-9.91-5.88-19.52-14.27-24.35z"
    fill="#f2a49b"
  ></path>
  <path
    class="st5"
    d="M340.63 342.94c11.55-.75 22.73-4.93 32.49-11.16 9.75-6.23 18.12-14.46 25.29-23.54-3.13 12.96-11.62 24.54-23.03 31.43-2.23 1.34-4.56 2.52-7.02 3.35-8.76 2.96-18.33 1.42-27.73-.08z"
  ></path>
  <path
    class="st3"
    d="M647.92 491.8c.13 4.22.4 8.76.22 13.28-2.08 1.27-4.26 2.41-6.35 3.44-15.74 7.79-31.31 16.21-45.02 27.18-10.33 8.26-19.61 18.07-26.44 29.34.5-3.4.98-6.8 1.43-10.21 11.01-13.15 21.29-26.4 33.52-37.75 12.22-11.36 26.56-20.83 42.64-25.28z"
  ></path>
  <path
    class="st6"
    d="M225.98 468.98a600.882 600.882 0 00-6.11 31.26c-4.18-1.07-8.04-3.45-10.82-6.76-3.53-4.21-5.3-9.86-4.78-15.33.06-.64.21-1.25.44-1.84-.08.69-.13 1.38-.16 2.07 3.95-4.95 8.68-7.66 13.56-8.81 2.61-.61 5.26-.77 7.87-.59z"
  ></path>
  <path
    class="st3"
    d="M621.01 609.79c-1.99 4.35-4.85 8.24-7.09 12.46-2.54 4.76-4.27 9.89-6.21 14.93-.6.39-1.22.75-1.84 1.1-3.71 2.09-9.1 3.31-11.65-.1-1.83-2.45-1.02-5.92.1-8.76 5.6-14.15 16.85-25.15 25.54-37.68a11.04 11.04 0 012.63 4.14c1.57 4.51.51 9.56-1.48 13.91zM615.96 713.79c-2.02 9.03-4.5 17.95-7.43 26.73-8.05 6.57-17.88 10.74-27.63 14.44-38.9 14.79-89.34 28.16-130.79 31.81-1.11-.74-2.58-2.06-3.33-3.01 22.91-8.11 55.44-19.09 78.79-25.75 15-4.28 30.31-8.2 43.9-15.87 14.82-8.36 27.22-21 43.1-27.11 1.11-.43 2.25-.83 3.39-1.24z"
  ></path>
  <ellipse
    transform="rotate(-33.005 318.293 326.464)"
    class="st4"
    cx="318.31"
    cy="326.47"
    rx="20.75"
    ry="9.12"
  ></ellipse>
  <ellipse
    transform="rotate(-8.563 398.443 281.019)"
    class="st4"
    cx="398.41"
    cy="281"
    rx="20.75"
    ry="9.12"
  ></ellipse>
  <path
    class="st10"
    d="M445.35 652.09c-12.33-9.68-19.65-25.44-19.07-41.11.12-3.15.77-6.69 3.4-8.41 2.62-1.72 6.34-.83 8.61 1.32 2.28 2.16 3.37 5.27 4.04 8.33.88 4.04 1.15 8.21.8 12.33a25.1 25.1 0 013.36-10.82c2.17-3.7 6.48-7.11 10.43-5.44 2.21.93 3.59 3.27 3.99 5.63.41 2.37 0 4.79-.45 7.15-2.25 11.93-6.34 24.69-15.11 31.02zM185.93 447.06c-23.41-2.45-43.47-15.81-52.31-34.85-1.78-3.82-3.03-8.51-.38-12.49 2.65-3.97 8.45-5.64 13-4.75 4.55.89 8.02 3.79 10.85 6.94 3.73 4.15 6.69 8.91 8.73 14.07-1.95-4.72-2.61-10-1.92-15.32.79-5.99 4.78-13.19 11.4-14.11 3.7-.52 7.08 1.25 9.12 3.76 2.03 2.51 2.96 5.69 3.78 8.82 4.14 15.82 6.22 33.98-2.27 47.93zM619.39 371.67c-5.19-17.5-1.53-37.72 9.54-52.73 2.22-3.01 5.22-6.07 8.88-6.06 3.64.01 6.56 3.29 7.27 6.88s-.35 7.36-1.77 10.8a51.143 51.143 0 01-7.53 12.63c2.81-3.55 6.42-6.47 10.45-8.44 4.54-2.23 10.91-2.78 13.54 1.42 1.47 2.35 1.2 5.53 0 8.12-1.2 2.59-3.21 4.71-5.22 6.73-10.15 10.23-22.6 20.11-35.16 20.65zM469.66 81.81c-9.02-15.87-10.04-36.39-2.66-53.52 1.48-3.44 3.71-7.09 7.27-7.91 3.55-.81 7.14 1.72 8.64 5.06s1.33 7.25.72 10.92c-.8 4.85-2.31 9.58-4.47 14.01 1.93-4.1 4.79-7.75 8.26-10.59 3.92-3.2 10-5.18 13.51-1.69 1.97 1.96 2.43 5.11 1.84 7.91-.59 2.79-2.06 5.31-3.56 7.74-7.55 12.26-17.44 24.7-29.55 28.07zM282.35 101.21c-20.82-4.56-38.95-19.46-47.28-38.87-1.67-3.9-2.91-8.59-.66-12.23 2.24-3.63 7.35-4.72 11.4-3.43 4.05 1.29 7.21 4.44 9.8 7.78 3.42 4.4 6.16 9.32 8.1 14.54a33.486 33.486 0 01-2.09-15.13c.54-5.78 3.9-12.44 9.74-12.73 3.27-.16 6.31 1.88 8.18 4.52 1.87 2.64 2.77 5.83 3.58 8.96 4.1 15.83 6.4 33.75-.77 46.59z"
  ></path>
</svg>
